{
    "accessors" : [
        {
            "bufferView" : 0, 
            "componentType" : 5123, 
            "count" : 4566, 
            "max" : [
                814
            ], 
            "min" : [
                0
            ], 
            "type" : "SCALAR"
        }, 
        {
            "bufferView" : 1, 
            "componentType" : 5126, 
            "count" : 815, 
            "max" : [
                0.14828099310398102, 
                0.2880859971046448, 
                0.1959020048379898
            ], 
            "min" : [
                -0.14828099310398102, 
                -0.1742739975452423, 
                -0.266198992729187
            ], 
            "type" : "VEC3"
        }, 
        {
            "bufferView" : 2, 
            "componentType" : 5126, 
            "count" : 815, 
            "max" : [
                0.9985656142234802, 
                0.999969482421875, 
                0.99993896484375
            ], 
            "min" : [
                -0.9985656142234802, 
                -1.0, 
                -0.999359130859375
            ], 
            "type" : "VEC3"
        }, 
        {
            "bufferView" : 3, 
            "componentType" : 5126, 
            "count" : 815, 
            "max" : [
                0.9898004531860352, 
                0.9858844876289368, 
                0.998136579990387, 
                1.0
            ], 
            "min" : [
                -0.9926297664642334, 
                -0.996877908706665, 
                -0.8304327130317688, 
                1.0
            ], 
            "type" : "VEC4"
        }, 
        {
            "bufferView" : 4, 
            "componentType" : 5126, 
            "count" : 815, 
            "max" : [
                0.6162999868392944, 
                0.9884999999776483
            ], 
            "min" : [
                0.00930000003427267, 
                0.05699998140335083
            ], 
            "type" : "VEC2"
        }
    ], 
    "asset" : {
        "generator" : "Khronos Blender glTF 2.0 exporter", 
        "version" : "2.0"
    }, 
    "bufferViews" : [
        {
            "buffer" : 0, 
            "byteLength" : 9132, 
            "byteOffset" : 0, 
            "target" : 34963
        }, 
        {
            "buffer" : 0, 
            "byteLength" : 9780, 
            "byteOffset" : 9132, 
            "target" : 34962
        }, 
        {
            "buffer" : 0, 
            "byteLength" : 9780, 
            "byteOffset" : 18912, 
            "target" : 34962
        }, 
        {
            "buffer" : 0, 
            "byteLength" : 13040, 
            "byteOffset" : 28692, 
            "target" : 34962
        }, 
        {
            "buffer" : 0, 
            "byteLength" : 6520, 
            "byteOffset" : 41732, 
            "target" : 34962
        }
    ], 
    "buffers" : [
        {
            "byteLength" : 48252, 
            "uri" : "head.bin"
        }
    ], 
    "cameras" : [
        {
            "name" : "Camera", 
            "perspective" : {
                "aspectRatio" : 1.703595982340029, 
                "yfov" : 0.5033799409866333, 
                "zfar" : 100.0, 
                "znear" : 0.10000000149011612
            }, 
            "type" : "perspective"
        }
    ], 
    "meshes" : [
        {
            "name" : "head", 
            "primitives" : [
                {
                    "attributes" : {
                        "NORMAL" : 2, 
                        "POSITION" : 1, 
                        "TANGENT" : 3, 
                        "TEXCOORD_0" : 4
                    }, 
                    "indices" : 0
                }
            ]
        }
    ], 
    "nodes" : [
        {
            "camera" : 0, 
            "name" : "Correction_Camera", 
            "rotation" : [
                -0.7071067690849304, 
                -0.0, 
                0.0, 
                0.7071067690849304
            ]
        }, 
        {
            "children" : [
                0
            ], 
            "name" : "Camera", 
            "rotation" : [
                0.483536034822464, 
                0.33687159419059753, 
                -0.20870360732078552, 
                0.7804827094078064
            ], 
            "translation" : [
                7.481131553649902, 
                5.34366512298584, 
                6.5076398849487305
            ]
        }, 
        {
            "mesh" : 0, 
            "name" : "head", 
            "rotation" : [
                0.7071068286895752, 
                0.0, 
                -0.0, 
                0.7071067094802856
            ]
        }, 
        {
            "name" : "Lamp", 
            "rotation" : [
                0.16907575726509094, 
                0.7558802962303162, 
                -0.27217137813568115, 
                0.570947527885437
            ], 
            "scale" : [
                1.0, 
                1.0, 
                0.9999999403953552
            ], 
            "translation" : [
                4.076245307922363, 
                5.903861999511719, 
                -1.0054539442062378
            ]
        }
    ], 
    "scene" : 0, 
    "scenes" : [
        {
            "name" : "Scene", 
            "nodes" : [
                2, 
                3, 
                1
            ]
        }
    ]
}
