{
    "asset": {
        "generator": "COLLADA2GLTF",
        "version": "2.0"
    },
    "scene": 0,
    "scenes": [
        {
            "nodes": [
                0
            ]
        }
    ],
    "nodes": [
        {
            "children": [
                2,
                1
            ],
            "matrix": [
                1.0,
                0.0,
                0.0,
                0.0,
                0.0,
                0.0,
                -1.0,
                0.0,
                0.0,
                1.0,
                0.0,
                0.0,
                0.0,
                0.0,
                0.0,
                1.0
            ]
        },
        {
            "mesh": 0,
            "matrix": [
                1.0,
                0.0,
                0.0,
                0.0,
                0.0,
                -1.629209975817503e-7,
                1.0,
                0.0,
                0.0,
                -1.0,
                -1.629209975817503e-7,
                0.0,
                0.0,
                0.0,
                0.0,
                1.0
            ]
        },
        {
            "matrix": [
                0.6859207153320313,
                0.7276763319969177,
                0.0,
                0.0,
                -0.32401350140571597,
                0.30542081594467165,
                0.8953956365585327,
                0.0,
                0.6515582203865051,
                -0.6141704320907593,
                0.44527140259742739,
                0.0,
                7.4811320304870609,
                -6.507639884948731,
                5.34366512298584,
                1.0
            ],
            "camera": 0
        }
    ],
    "cameras": [
        {
            "perspective": {
                "yfov": 0.4823747575283051,
                "zfar": 100.0,
                "znear": 0.10000000149011612
            },
            "type": "perspective"
        }
    ],
    "meshes": [
        {
            "primitives": [
                {
                    "attributes": {
                        "NORMAL": 1,
                        "POSITION": 2
                    },
                    "indices": 0,
                    "mode": 4,
                    "material": 0
                },
                {
                    "attributes": {
                        "NORMAL": 4,
                        "POSITION": 5
                    },
                    "indices": 3,
                    "mode": 4,
                    "material": 1
                },
                {
                    "attributes": {
                        "NORMAL": 7,
                        "POSITION": 8
                    },
                    "indices": 6,
                    "mode": 4,
                    "material": 2
                },
                {
                    "attributes": {
                        "NORMAL": 10,
                        "POSITION": 11
                    },
                    "indices": 9,
                    "mode": 4,
                    "material": 3
                }
            ],
            "name": "model"
        }
    ],
    "accessors": [
        {
            "bufferView": 0,
            "byteOffset": 0,
            "componentType": 5123,
            "count": 354,
            "max": [
                251
            ],
            "min": [
                0
            ],
            "type": "SCALAR"
        },
        {
            "bufferView": 1,
            "byteOffset": 0,
            "componentType": 5126,
            "count": 252,
            "max": [
                0.9860149025917052,
                0.9997342228889464,
                0.9973115921020508
            ],
            "min": [
                -0.9860141277313232,
                -0.9997344017028808,
                -0.9995445013046264
            ],
            "type": "VEC3"
        },
        {
            "bufferView": 1,
            "byteOffset": 5328,
            "componentType": 5126,
            "count": 252,
            "max": [
                0.037189241498708728,
                0.02891826070845127,
                0.18847090005874637
            ],
            "min": [
                -0.028217850252985956,
                -0.03073585033416748,
                0.007975696586072445
            ],
            "type": "VEC3"
        },
        {
            "bufferView": 0,
            "byteOffset": 708,
            "componentType": 5123,
            "count": 204,
            "max": [
                95
            ],
            "min": [
                0
            ],
            "type": "SCALAR"
        },
        {
            "bufferView": 1,
            "byteOffset": 3024,
            "componentType": 5126,
            "count": 96,
            "max": [
                0.9913179874420166,
                0.9935678839683532,
                0.99721759557724
            ],
            "min": [
                -0.9913483262062072,
                -0.9935573935508728,
                -0.9972226023674012
            ],
            "type": "VEC3"
        },
        {
            "bufferView": 1,
            "byteOffset": 4176,
            "componentType": 5126,
            "count": 96,
            "max": [
                0.012062840163707734,
                0.02080512046813965,
                0.01140660047531128
            ],
            "min": [
                -0.05164843052625656,
                -0.01070236973464489,
                -0.6007093191146851
            ],
            "type": "VEC3"
        },
        {
            "bufferView": 0,
            "byteOffset": 1128,
            "componentType": 5123,
            "count": 762,
            "max": [
                453
            ],
            "min": [
                0
            ],
            "type": "SCALAR"
        },
        {
            "bufferView": 1,
            "byteOffset": 13896,
            "componentType": 5126,
            "count": 454,
            "max": [
                0.990263819694519,
                0.9886069297790529,
                0.9907293915748596
            ],
            "min": [
                -0.9902639389038086,
                -0.9886049032211304,
                -0.9972178339958192
            ],
            "type": "VEC3"
        },
        {
            "bufferView": 1,
            "byteOffset": 8352,
            "componentType": 5126,
            "count": 454,
            "max": [
                0.029832718893885617,
                0.02004373073577881,
                0.20767660439014436
            ],
            "min": [
                -0.01860189065337181,
                -0.021861430257558824,
                0.008698225021362305
            ],
            "type": "VEC3"
        },
        {
            "bufferView": 0,
            "byteOffset": 1116,
            "componentType": 5123,
            "count": 6,
            "max": [
                3
            ],
            "min": [
                0
            ],
            "type": "SCALAR"
        },
        {
            "bufferView": 1,
            "byteOffset": 13800,
            "componentType": 5126,
            "count": 4,
            "max": [
                -0.9860125184059144,
                0.14929890632629398,
                0.07408957928419113
            ],
            "min": [
                -0.986013114452362,
                0.1492965966463089,
                0.07408750057220459
            ],
            "type": "VEC3"
        },
        {
            "bufferView": 1,
            "byteOffset": 13848,
            "componentType": 5126,
            "count": 4,
            "max": [
                -0.006753026973456144,
                0.0040572877041995529,
                0.07750803232192993
            ],
            "min": [
                -0.008463977836072445,
                -0.003764270804822445,
                0.06991279125213623
            ],
            "type": "VEC3"
        }
    ],
    "materials": [
        {
            "pbrMetallicRoughness": {
                "baseColorFactor": [
                    0.8100000023841858,
                    0.8499999642372131,
                    0.85999995470047,
                    1.0
                ],
                "metallicFactor": 0.0
            },
            "emissiveFactor": [
                0.0,
                0.0,
                0.0
            ],
            "name": "mat15-effect"
        },
        {
            "pbrMetallicRoughness": {
                "baseColorFactor": [
                    0.009999999776482582,
                    0.6100000143051148,
                    0.9000000357627869,
                    1.0
                ],
                "metallicFactor": 0.0
            },
            "emissiveFactor": [
                0.0,
                0.0,
                0.0
            ],
            "name": "mat5-effect"
        },
        {
            "pbrMetallicRoughness": {
                "baseColorFactor": [
                    0.10000000149011612,
                    0.10000000149011612,
                    0.10000000149011612,
                    1.0
                ],
                "metallicFactor": 0.0
            },
            "emissiveFactor": [
                0.0,
                0.0,
                0.0
            ],
            "name": "mat23-effect"
        },
        {
            "pbrMetallicRoughness": {
                "baseColorFactor": [
                    0.959999978542328,
                    0.2599999904632569,
                    0.20999999344348908,
                    1.0
                ],
                "metallicFactor": 0.0
            },
            "emissiveFactor": [
                0.0,
                0.0,
                0.0
            ],
            "name": "mat8-effect"
        }
    ],
    "bufferViews": [
        {
            "buffer": 0,
            "byteOffset": 19344,
            "byteLength": 2652,
            "target": 34963
        },
        {
            "buffer": 0,
            "byteOffset": 0,
            "byteLength": 19344,
            "byteStride": 12,
            "target": 34962
        }
    ],
    "buffers": [
        {
            "byteLength": 21996,
            "uri": "data:application/octet-stream;base64,"
        }
    ]
}
