{
    "accessors" : [
        {
            "bufferView" : 0, 
            "componentType" : 5123, 
            "count" : 88884, 
            "max" : [
                59179
            ], 
            "min" : [
                0
            ], 
            "type" : "SCALAR"
        }, 
        {
            "bufferView" : 1, 
            "componentType" : 5126, 
            "count" : 59180, 
            "max" : [
                4.407354354858398, 
                0.782246470451355, 
                0.5435065627098083
            ], 
            "min" : [
                -2.4888553619384766, 
                -1.7057664394378662, 
                -0.543505847454071
            ], 
            "type" : "VEC3"
        }, 
        {
            "bufferView" : 2, 
            "componentType" : 5126, 
            "count" : 59180, 
            "max" : [
                0.9862486124038696, 
                0.9998242855072021, 
                0.9963116645812988
            ], 
            "min" : [
                -0.9862486124038696, 
                -0.9998241662979126, 
                -0.9963117241859436
            ], 
            "type" : "VEC3"
        }, 
        {
            "bufferView" : 3, 
            "componentType" : 5126, 
            "count" : 59180, 
            "max" : [
                0.9928814768791199, 
                0.9774506092071533, 
                0.9999041557312012, 
                1.0
            ], 
            "min" : [
                -0.9913467764854431, 
                -0.9774494767189026, 
                -0.9999041557312012, 
                1.0
            ], 
            "type" : "VEC4"
        }, 
        {
            "bufferView" : 4, 
            "componentType" : 5126, 
            "count" : 59180, 
            "max" : [
                0.9560701847076416, 
                0.9571009576320648
            ], 
            "min" : [
                0.11970239877700806, 
                0.054013729095458984
            ], 
            "type" : "VEC2"
        }, 
        {
            "bufferView" : 5, 
            "componentType" : 5123, 
            "count" : 4050, 
            "max" : [
                2673
            ], 
            "min" : [
                0
            ], 
            "type" : "SCALAR"
        }, 
        {
            "bufferView" : 6, 
            "componentType" : 5126, 
            "count" : 2674, 
            "max" : [
                0.9883878231048584, 
                8.584856033325195, 
                0.42182657122612
            ], 
            "min" : [
                -2.036747932434082, 
                0.06357897073030472, 
                -0.42182639241218567
            ], 
            "type" : "VEC3"
        }, 
        {
            "bufferView" : 7, 
            "componentType" : 5126, 
            "count" : 2674, 
            "max" : [
                0.9999179244041443, 
                0.9999995827674866, 
                1.0
            ], 
            "min" : [
                -0.9998167157173157, 
                -0.9995501041412354, 
                -1.0
            ], 
            "type" : "VEC3"
        }, 
        {
            "bufferView" : 8, 
            "componentType" : 5126, 
            "count" : 2674, 
            "max" : [
                0.9995470643043518, 
                0.9898306727409363, 
                0.9999986290931702, 
                1.0
            ], 
            "min" : [
                -0.9985558390617371, 
                -0.9869544506072998, 
                -1.0, 
                1.0
            ], 
            "type" : "VEC4"
        }, 
        {
            "bufferView" : 9, 
            "componentType" : 5126, 
            "count" : 2674, 
            "max" : [
                0.9645030498504639, 
                0.9674505591392517
            ], 
            "min" : [
                0.03549686074256897, 
                0.03946983814239502
            ], 
            "type" : "VEC2"
        }, 
        {
            "bufferView" : 10, 
            "componentType" : 5123, 
            "count" : 3060, 
            "max" : [
                2039
            ], 
            "min" : [
                0
            ], 
            "type" : "SCALAR"
        }, 
        {
            "bufferView" : 11, 
            "componentType" : 5126, 
            "count" : 2040, 
            "max" : [
                0.782394528388977, 
                0.06445460021495819, 
                0.24942511320114136
            ], 
            "min" : [
                -1.5945929288864136, 
                -22.067136764526367, 
                -0.19940930604934692
            ], 
            "type" : "VEC3"
        }, 
        {
            "bufferView" : 12, 
            "componentType" : 5126, 
            "count" : 2040, 
            "max" : [
                0.9999996423721313, 
                0.7393651604652405, 
                1.0
            ], 
            "min" : [
                -0.9998482465744019, 
                -0.9995212554931641, 
                -1.0
            ], 
            "type" : "VEC3"
        }, 
        {
            "bufferView" : 13, 
            "componentType" : 5126, 
            "count" : 2040, 
            "max" : [
                0.4573199450969696, 
                0.7491441965103149, 
                0.9999905824661255, 
                1.0
            ], 
            "min" : [
                -0.9998812079429626, 
                -0.4593375027179718, 
                -0.9999718070030212, 
                1.0
            ], 
            "type" : "VEC4"
        }, 
        {
            "bufferView" : 14, 
            "componentType" : 5126, 
            "count" : 2040, 
            "max" : [
                0.646645188331604, 
                0.9556899219751358
            ], 
            "min" : [
                0.4386199414730072, 
                0.06642252206802368
            ], 
            "type" : "VEC2"
        }
    ], 
    "asset" : {
        "generator" : "Khronos Blender glTF 2.0 exporter", 
        "version" : "2.0"
    }, 
    "bufferViews" : [
        {
            "buffer" : 0, 
            "byteLength" : 177768, 
            "byteOffset" : 0, 
            "target" : 34963
        }, 
        {
            "buffer" : 0, 
            "byteLength" : 710160, 
            "byteOffset" : 177768, 
            "target" : 34962
        }, 
        {
            "buffer" : 0, 
            "byteLength" : 710160, 
            "byteOffset" : 887928, 
            "target" : 34962
        }, 
        {
            "buffer" : 0, 
            "byteLength" : 946880, 
            "byteOffset" : 1598088, 
            "target" : 34962
        }, 
        {
            "buffer" : 0, 
            "byteLength" : 473440, 
            "byteOffset" : 2544968, 
            "target" : 34962
        }, 
        {
            "buffer" : 0, 
            "byteLength" : 8100, 
            "byteOffset" : 3018408, 
            "target" : 34963
        }, 
        {
            "buffer" : 0, 
            "byteLength" : 32088, 
            "byteOffset" : 3026508, 
            "target" : 34962
        }, 
        {
            "buffer" : 0, 
            "byteLength" : 32088, 
            "byteOffset" : 3058596, 
            "target" : 34962
        }, 
        {
            "buffer" : 0, 
            "byteLength" : 42784, 
            "byteOffset" : 3090684, 
            "target" : 34962
        }, 
        {
            "buffer" : 0, 
            "byteLength" : 21392, 
            "byteOffset" : 3133468, 
            "target" : 34962
        }, 
        {
            "buffer" : 0, 
            "byteLength" : 6120, 
            "byteOffset" : 3154860, 
            "target" : 34963
        }, 
        {
            "buffer" : 0, 
            "byteLength" : 24480, 
            "byteOffset" : 3160980, 
            "target" : 34962
        }, 
        {
            "buffer" : 0, 
            "byteLength" : 24480, 
            "byteOffset" : 3185460, 
            "target" : 34962
        }, 
        {
            "buffer" : 0, 
            "byteLength" : 32640, 
            "byteOffset" : 3209940, 
            "target" : 34962
        }, 
        {
            "buffer" : 0, 
            "byteLength" : 16320, 
            "byteOffset" : 3242580, 
            "target" : 34962
        }
    ], 
    "buffers" : [
        {
            "byteLength" : 3258900, 
            "uri" : "spartan.bin"
        }
    ], 
    "cameras" : [
        {
            "name" : "Camera", 
            "perspective" : {
                "aspectRatio" : 1.5469680086432045, 
                "yfov" : 0.9847670793533325, 
                "zfar" : 100.0, 
                "znear" : 0.0010000000474974513
            }, 
            "type" : "perspective"
        }
    ], 
    "meshes" : [
        {
            "name" : "Cylinder.004", 
            "primitives" : [
                {
                    "attributes" : {
                        "NORMAL" : 2, 
                        "POSITION" : 1, 
                        "TANGENT" : 3, 
                        "TEXCOORD_0" : 4
                    }, 
                    "indices" : 0
                }
            ]
        }, 
        {
            "name" : "Cube", 
            "primitives" : [
                {
                    "attributes" : {
                        "NORMAL" : 7, 
                        "POSITION" : 6, 
                        "TANGENT" : 8, 
                        "TEXCOORD_0" : 9
                    }, 
                    "indices" : 5
                }
            ]
        }, 
        {
            "name" : "Cube.001", 
            "primitives" : [
                {
                    "attributes" : {
                        "NORMAL" : 12, 
                        "POSITION" : 11, 
                        "TANGENT" : 13, 
                        "TEXCOORD_0" : 14
                    }, 
                    "indices" : 10
                }
            ]
        }
    ], 
    "nodes" : [
        {
            "mesh" : 2, 
            "name" : "blade", 
            "rotation" : [
                0.9391788244247437, 
                0.3434285521507263, 
                1.9535905337875192e-08, 
                2.3668394533160608e-07
            ], 
            "scale" : [
                0.2329506278038025, 
                0.19046032428741455, 
                0.2329506278038025
            ], 
            "translation" : [
                0.8128931522369385, 
                2.519543170928955, 
                0.5695070028305054
            ]
        }, 
        {
            "camera" : 0, 
            "name" : "Correction_Camera", 
            "rotation" : [
                -0.7071067690849304, 
                -0.0, 
                0.0, 
                0.7071067690849304
            ]
        }, 
        {
            "children" : [
                1
            ], 
            "name" : "Camera", 
            "rotation" : [
                0.7071068286895752, 
                0.0, 
                -0.0, 
                0.7071068286895752
            ], 
            "translation" : [
                -0.012911468744277954, 
                3.2721364498138428, 
                5.350516319274902
            ]
        }, 
        {
            "mesh" : 0, 
            "name" : "handle", 
            "rotation" : [
                1.5767351868589685e-08, 
                4.727666791382035e-08, 
                0.1298235058784485, 
                0.9915371537208557
            ], 
            "scale" : [
                0.1097576916217804, 
                0.4678319990634918, 
                0.2787492573261261
            ], 
            "translation" : [
                1.2096917629241943, 
                2.0688562393188477, 
                0.5689316391944885
            ]
        }, 
        {
            "name" : "Lamp", 
            "rotation" : [
                -0.21898190677165985, 
                0.5962458252906799, 
                -0.5865886211395264, 
                0.502445638179779
            ], 
            "translation" : [
                1.7095043659210205, 
                5.903861999511719, 
                -6.68915319442749
            ]
        }, 
        {
            "name" : "Lamp.001", 
            "rotation" : [
                0.36562368273735046, 
                0.7557923793792725, 
                0.33693113923072815, 
                0.4261156916618347
            ], 
            "scale" : [
                0.9999999403953552, 
                1.0, 
                1.0
            ], 
            "translation" : [
                1.7095043659210205, 
                5.903861999511719, 
                8.412176132202148
            ]
        }, 
        {
            "name" : "Lamp.002", 
            "rotation" : [
                0.4984274208545685, 
                0.5750001668930054, 
                0.5950795412063599, 
                0.2585061490535736
            ], 
            "scale" : [
                1.0, 
                0.9999999403953552, 
                0.9999999403953552
            ], 
            "translation" : [
                1.7095043659210205, 
                1.941225528717041, 
                8.412176132202148
            ]
        }, 
        {
            "mesh" : 1, 
            "name" : "metal", 
            "rotation" : [
                1.1821209811331145e-15, 
                2.0469931527600238e-08, 
                0.34342843294143677, 
                0.9391788840293884
            ], 
            "scale" : [
                0.2329506278038025, 
                0.19046032428741455, 
                0.2329506278038025
            ], 
            "translation" : [
                1.8888893127441406, 
                1.2920507192611694, 
                0.5695070028305054
            ]
        }
    ], 
    "scene" : 0, 
    "scenes" : [
        {
            "name" : "Scene", 
            "nodes" : [
                3, 
                6, 
                5, 
                0, 
                7, 
                4, 
                2
            ]
        }
    ]
}
