{
    "accessors" : [
        {
            "bufferView" : 0, 
            "componentType" : 5123, 
            "count" : 5352, 
            "max" : [
                1121
            ], 
            "min" : [
                0
            ], 
            "type" : "SCALAR"
        }, 
        {
            "bufferView" : 1, 
            "componentType" : 5126, 
            "count" : 1122, 
            "max" : [
                0.7512488961219788, 
                0.20667651295661926, 
                8.346117973327637
            ], 
            "min" : [
                -0.7512488961219788, 
                -0.20667649805545807, 
                -2.1747891902923584
            ], 
            "type" : "VEC3"
        }, 
        {
            "bufferView" : 2, 
            "componentType" : 5126, 
            "count" : 1122, 
            "max" : [
                1.0, 
                1.0, 
                1.0
            ], 
            "min" : [
                -1.0, 
                -1.0, 
                -1.0
            ], 
            "type" : "VEC3"
        }, 
        {
            "bufferView" : 3, 
            "componentType" : 5126, 
            "count" : 1122, 
            "max" : [
                0.9999995827674866, 
                0.9999834299087524, 
                0.9825143814086914, 
                1.0
            ], 
            "min" : [
                -1.0, 
                -0.9999419450759888, 
                -0.9748201370239258, 
                1.0
            ], 
            "type" : "VEC4"
        }, 
        {
            "bufferView" : 4, 
            "componentType" : 5126, 
            "count" : 1122, 
            "max" : [
                0.9840247631072998, 
                0.9760644156485796
            ], 
            "min" : [
                0.013701441697776318, 
                0.015416443347930908
            ], 
            "type" : "VEC2"
        }
    ], 
    "asset" : {
        "generator" : "Khronos Blender glTF 2.0 exporter", 
        "version" : "2.0"
    }, 
    "bufferViews" : [
        {
            "buffer" : 0, 
            "byteLength" : 10704, 
            "byteOffset" : 0, 
            "target" : 34963
        }, 
        {
            "buffer" : 0, 
            "byteLength" : 13464, 
            "byteOffset" : 10704, 
            "target" : 34962
        }, 
        {
            "buffer" : 0, 
            "byteLength" : 13464, 
            "byteOffset" : 24168, 
            "target" : 34962
        }, 
        {
            "buffer" : 0, 
            "byteLength" : 17952, 
            "byteOffset" : 37632, 
            "target" : 34962
        }, 
        {
            "buffer" : 0, 
            "byteLength" : 8976, 
            "byteOffset" : 55584, 
            "target" : 34962
        }
    ], 
    "buffers" : [
        {
            "byteLength" : 64560, 
            "uri" : "sword.bin"
        }
    ], 
    "cameras" : [
        {
            "name" : "Camera", 
            "perspective" : {
                "aspectRatio" : 1.7620048373692627, 
                "yfov" : 0.22405791282653809, 
                "zfar" : 100.0, 
                "znear" : 0.10000000149011612
            }, 
            "type" : "perspective"
        }
    ], 
    "meshes" : [
        {
            "name" : "Cylinder", 
            "primitives" : [
                {
                    "attributes" : {
                        "NORMAL" : 2, 
                        "POSITION" : 1, 
                        "TANGENT" : 3, 
                        "TEXCOORD_0" : 4
                    }, 
                    "indices" : 0
                }
            ]
        }
    ], 
    "nodes" : [
        {
            "name" : "Area", 
            "rotation" : [
                0.0, 
                0.0, 
                0.38268348574638367, 
                0.9238795042037964
            ], 
            "translation" : [
                -9.87470531463623, 
                9.874703407287598, 
                -0.0
            ]
        }, 
        {
            "camera" : 0, 
            "name" : "Correction_Camera.002", 
            "rotation" : [
                -0.7071067690849304, 
                -0.0, 
                0.0, 
                0.7071067690849304
            ]
        }, 
        {
            "children" : [
                1
            ], 
            "name" : "Camera.002", 
            "rotation" : [
                0.37678301334381104, 
                0.28595757484436035, 
                -0.0868113711476326, 
                0.876770555973053
            ], 
            "scale" : [
                0.9999999403953552, 
                0.9999999403953552, 
                0.9999999403953552
            ], 
            "translation" : [
                4.052947521209717, 
                7.5263776779174805, 
                7.8943939208984375
            ]
        }, 
        {
            "mesh" : 0, 
            "name" : "o_sword", 
            "translation" : [
                0.0, 
                0.0, 
                -0.26532524824142456
            ]
        }
    ], 
    "scene" : 0, 
    "scenes" : [
        {
            "name" : "Scene", 
            "nodes" : [
                0, 
                3, 
                2
            ]
        }
    ]
}
